<svg width="24" height="24" viewBox="0 0 24 24" fill="none" xmlns="http://www.w3.org/2000/svg">
<g clip-path="url(#clip0_424_918)">
<rect width="24" height="24" rx="5" fill="white"/>
<path d="M6.65288 19V4.45455H12.4767C13.5468 4.45455 14.4393 4.61316 15.1543 4.9304C15.8693 5.24763 16.4067 5.68797 16.7665 6.25142C17.1264 6.81013 17.3063 7.45407 17.3063 8.18324C17.3063 8.75142 17.1926 9.25095 16.9654 9.68182C16.7381 10.108 16.4256 10.4583 16.0279 10.733C15.6349 11.0028 15.1851 11.1946 14.6784 11.3082V11.4503C15.2324 11.474 15.7509 11.6302 16.2338 11.919C16.7215 12.2079 17.1169 12.6127 17.4199 13.1335C17.723 13.6496 17.8745 14.2652 17.8745 14.9801C17.8745 15.7519 17.6827 16.4408 17.2992 17.0469C16.9204 17.6482 16.3593 18.1241 15.6159 18.4744C14.8726 18.8248 13.9564 19 12.8674 19H6.65288ZM9.72816 16.4858H12.2353C13.0923 16.4858 13.7173 16.3224 14.1103 15.9957C14.5033 15.6643 14.6998 15.224 14.6998 14.6747C14.6998 14.2723 14.6027 13.9171 14.4086 13.6094C14.2144 13.3016 13.9374 13.0601 13.5776 12.8849C13.2225 12.7098 12.7987 12.6222 12.3063 12.6222H9.72816V16.4858ZM9.72816 10.5412H12.008C12.4294 10.5412 12.8034 10.4678 13.1301 10.321C13.4616 10.1695 13.722 9.95644 13.9114 9.68182C14.1055 9.4072 14.2026 9.07812 14.2026 8.6946C14.2026 8.16903 14.0156 7.74527 13.6415 7.4233C13.2722 7.10133 12.7466 6.94034 12.0648 6.94034H9.72816V10.5412Z" fill="#09090A"/>
</g>
<defs>
<clipPath id="clip0_424_918">
<rect width="24" height="24" rx="5" fill="white"/>
</clipPath>
</defs>
</svg>